# xmcd
# 
# Track frame offsets:
#     150
#     19780
#     32532
#     53989
#     72663
#     100185
#     123217
#     142028
#     158377
#     175564
# 
# Disc length: 2661
# 
# Revision: 2
# Processed by: cddbd v1.5.2PL0 Copyright (c) Steve Scherf et al.
# Submitted via: BonkEnc v1.0.8
# 
DISCID=7b0a630a
DTITLE=Elvis Perkins In Dearland - Elvis Perkins In Dearland
DYEAR=2009
DGENRE=Folk
TTITLE0=Shampoo
TTITLE1=Hey
TTITLE2=Hours Last Stand
TTITLE3=I Heard Your Voice In Dresden
TTITLE4=Send My Fond Regards To Lonelyville
TTITLE5=I'll Be Arriving
TTITLE6=Chains, Chains, Chains
TTITLE7=Doomsday
TTITLE8=123 Goodbye
TTITLE9=How's Forever Been Baby
EXTD=
EXTT0=
EXTT1=
EXTT2=
EXTT3=
EXTT4=
EXTT5=
EXTT6=
EXTT7=
EXTT8=
EXTT9=
PLAYORDER=
